<?xml version="1.0" encoding="UTF-8"?>
<svg width="200" height="200" version="1.1" viewBox="0 0 200 200" xmlns="http://www.w3.org/2000/svg">
 <rect width="200" height="200" fill="#f3f4f6"/>
 <g transform="translate(60,60)">
  <path d="m40 0c-22.091 0-40 17.909-40 40s17.909 40 40 40 40-17.909 40-40-17.909-40-40-40zm0 10c16.569 0 30 13.431 30 30s-13.431 30-30 30-30-13.431-30-30 13.431-30 30-30z" fill="#9ca3af"/>
  <path d="m40 20c-11.046 0-20 8.9543-20 20s8.9543 20 20 20 20-8.9543 20-20-8.9543-20-20-20zm0 10c5.5228 0 10 4.4772 10 10s-4.4772 10-10 10-10-4.4772-10-10 4.4772-10 10-10z" fill="#9ca3af"/>
 </g>
</svg> 